<svg xmlns="http://www.w3.org/2000/svg" width="45" height="45" viewBox="0 0 45 45" fill="none">
<path d="M22.4857 34.734V36.3474C22.4857 39.7757 21.1107 41.1507 17.664 41.1507H8.95568C6.29734 41.1507 4.15234 39.0057 4.15234 36.3474V27.639C4.15234 24.1924 5.52734 22.8174 8.95568 22.8174H10.569V29.234C10.569 32.2774 13.0257 34.734 16.069 34.734H22.4857Z" fill="white"/>
<path d="M31.6536 25.5671V27.1621C31.6536 29.8204 29.4903 31.9837 26.832 31.9837H18.1236C14.6953 31.9837 13.3203 30.6087 13.3203 27.1621V18.4537C13.3203 15.7954 15.4653 13.6504 18.1236 13.6504H19.737V20.0671C19.737 23.1104 22.1936 25.5671 25.237 25.5671H31.6536Z" fill="white"/>
<path d="M40.8197 9.28771V17.996C40.8197 21.4427 39.4447 22.8177 35.998 22.8177H27.2897C23.8613 22.8177 22.4863 21.4427 22.4863 17.996V9.28771C22.4863 5.85937 23.8613 4.48438 27.2897 4.48438H35.998C39.4447 4.48438 40.8197 5.85937 40.8197 9.28771Z" fill="white"/>
</svg>