<svg width="146" height="49" viewBox="0 0 146 49" fill="none" xmlns="http://www.w3.org/2000/svg">
<g id="Group 427321547">
<g id="Group 66">
<g id="Group 28">
<path id="Vector" d="M15.0726 15.1424H25.9481C26.328 15.1319 26.6888 14.9736 26.9538 14.7012C27.2188 14.4288 27.367 14.0638 27.367 13.6837C27.367 13.3037 27.2188 12.9387 26.9538 12.6663C26.6888 12.3939 26.328 12.2356 25.9481 12.2251H15.0726C15.0335 12.225 14.9948 12.2325 14.9587 12.2474C14.9226 12.2623 14.8897 12.2842 14.8621 12.3118C14.8345 12.3394 14.8126 12.3723 14.7977 12.4084C14.7828 12.4445 14.7752 12.4832 14.7754 12.5223V14.8463C14.7757 14.9249 14.8071 15.0002 14.8628 15.0557C14.9185 15.1112 14.9939 15.1424 15.0726 15.1424Z" fill="white"/>
<path id="Vector_2" d="M15.0726 25.6033H28.0751C28.455 25.5928 28.8158 25.4345 29.0808 25.1621C29.3458 24.8897 29.4941 24.5247 29.4941 24.1447C29.4941 23.7647 29.3458 23.3996 29.0808 23.1272C28.8158 22.8548 28.455 22.6965 28.0751 22.686H15.0726C15.0335 22.6859 14.9948 22.6935 14.9587 22.7084C14.9226 22.7232 14.8897 22.7451 14.8621 22.7728C14.8345 22.8004 14.8126 22.8332 14.7977 22.8693C14.7828 22.9054 14.7752 22.9442 14.7754 22.9832V25.3073C14.7754 25.3462 14.7831 25.3848 14.798 25.4208C14.813 25.4568 14.8349 25.4895 14.8625 25.517C14.8901 25.5445 14.9229 25.5663 14.9589 25.5811C14.995 25.5959 15.0336 25.6035 15.0726 25.6033Z" fill="white"/>
<path id="Vector_3" d="M30.1933 33.1509H15.0726C14.9937 33.1512 14.9181 33.1827 14.8624 33.2386C14.8067 33.2946 14.7754 33.3703 14.7754 33.4492V35.7721C14.7754 35.8509 14.8067 35.9265 14.8624 35.9822C14.9182 36.038 14.9938 36.0693 15.0726 36.0693H30.1933C30.5803 36.0693 30.9514 35.9155 31.2251 35.6419C31.4987 35.3682 31.6525 34.9971 31.6525 34.6101C31.6525 34.2231 31.4987 33.8519 31.2251 33.5783C30.9514 33.3046 30.5803 33.1509 30.1933 33.1509Z" fill="white"/>
<path id="Vector_4" d="M15.0726 20.3742H31.0837C31.4704 20.3742 31.8413 20.2206 32.1147 19.9471C32.3882 19.6737 32.5418 19.3028 32.5418 18.9161C32.5418 18.5294 32.3882 18.1585 32.1147 17.8851C31.8413 17.6116 31.4704 17.458 31.0837 17.458H15.0726C15.0335 17.4579 14.9948 17.4655 14.9587 17.4803C14.9226 17.4952 14.8897 17.5171 14.8621 17.5447C14.8345 17.5724 14.8126 17.6052 14.7977 17.6413C14.7828 17.6774 14.7752 17.7161 14.7754 17.7552V20.0781C14.7754 20.1171 14.7831 20.1557 14.798 20.1917C14.813 20.2277 14.8349 20.2604 14.8625 20.2879C14.8901 20.3154 14.9229 20.3372 14.9589 20.352C14.995 20.3668 15.0336 20.3743 15.0726 20.3742Z" fill="white"/>
<path id="Vector_5" d="M33.7751 27.9211H15.076C15.0369 27.921 14.9982 27.9286 14.9621 27.9435C14.926 27.9584 14.8932 27.9802 14.8655 28.0079C14.8379 28.0355 14.816 28.0683 14.8011 28.1044C14.7863 28.1405 14.7787 28.1793 14.7788 28.2183V30.5413C14.7788 30.6201 14.8101 30.6957 14.8659 30.7514C14.9216 30.8071 14.9972 30.8384 15.076 30.8384H33.7751C34.155 30.8279 34.5158 30.6697 34.7808 30.3973C35.0458 30.1248 35.194 29.7598 35.194 29.3798C35.194 28.9998 35.0458 28.6347 34.7808 28.3623C34.5158 28.0899 34.155 27.9316 33.7751 27.9211Z" fill="white"/>
<path id="Vector_6" d="M79.0728 29.4392C79.0728 30.2607 79.4479 30.8072 81.2799 30.8072C84.5634 30.8072 85.0542 28.7024 85.0542 27.448V27.3545L81.0072 27.9867C79.5057 28.2038 79.0728 28.5288 79.0728 29.4392Z" fill="white"/>
<path id="Vector_7" d="M68.5699 25.178H63.8662V30.5072H68.5699C70.7771 30.5072 71.5217 29.8394 71.5217 27.856C71.5217 25.8536 70.7771 25.178 68.5699 25.178Z" fill="white"/>
<path id="Vector_8" d="M70.9363 20.1365C70.9363 18.3556 70.2584 17.7869 68.1448 17.7869H63.8662V22.4616H68.0657C70.2117 22.4605 70.9363 21.874 70.9363 20.1365Z" fill="white"/>
<path id="Vector_9" d="M142.598 3.2139C139.531 0.147463 134.595 0.147461 124.724 0.147461H20.9397C11.0681 0.147461 6.13621 0.147463 3.06643 3.2139C-0.00333916 6.28033 1.5736e-08 11.2156 1.5736e-08 21.0871V27.2089C1.5736e-08 37.0794 0 42.0124 3.06643 45.081C6.13287 48.1497 11.0681 48.1475 20.9397 48.1475H124.724C134.595 48.1475 139.528 48.1475 142.598 45.081C145.667 42.0146 145.664 37.0794 145.664 27.2089V21.0871C145.664 11.2156 145.664 6.28033 142.598 3.2139ZM45.8574 26.934C45.8574 35.9218 45.8574 40.4151 43.0648 43.2078C40.2721 46.0004 35.7788 46.0004 26.791 46.0004H21.2124C12.2246 46.0004 7.7312 46.0004 4.93857 43.2078C2.14595 40.4151 2.14595 35.9218 2.14595 26.934V21.3598C2.14595 12.372 2.14595 7.87866 4.93857 5.08604C7.7312 2.29341 12.2246 2.29341 21.2124 2.29341H26.7865C35.7743 2.29341 40.2677 2.29341 43.0603 5.08604C45.8529 7.87866 45.8574 12.372 45.8574 21.3598V26.934ZM68.6536 33.4163H60.731V14.8764H68.3297C72.0139 14.8764 74.043 16.5459 74.043 19.5645C74.043 21.7795 72.8264 23.2075 70.6126 23.5993C73.1637 23.9855 74.6852 25.7163 74.6852 28.2652C74.6852 31.4908 72.4257 33.4163 68.6492 33.4163H68.6536ZM88.0607 32.7407C88.0611 32.7932 88.0512 32.8452 88.0315 32.8939C88.0119 32.9425 87.9828 32.9868 87.946 33.0242C87.9092 33.0617 87.8654 33.0915 87.8171 33.1119C87.7688 33.1324 87.7169 33.1432 87.6644 33.1436H85.5329C85.4269 33.1427 85.3255 33.0998 85.251 33.0243C85.1765 32.9488 85.135 32.8468 85.1356 32.7407V31.1301C84.519 32.0584 83.1388 33.4163 80.3495 33.4163C77.7183 33.4163 76.0175 31.9415 76.0175 29.6576C76.0175 27.4415 77.4979 26.1493 80.5432 25.7074L85.0543 25.0151V24.3929C85.0543 22.5564 84.3097 21.9063 82.2094 21.9063C80.1747 21.9063 79.419 22.543 79.419 24.256V24.3929C79.4196 24.4993 79.378 24.6015 79.3033 24.6773C79.2286 24.753 79.1269 24.796 79.0205 24.7969H76.79C76.6836 24.796 76.5819 24.753 76.5072 24.6773C76.4325 24.6015 76.3909 24.4993 76.3915 24.3929C76.3915 22.8769 76.9747 21.5134 78.0321 20.5551C79.1185 19.5701 80.6177 19.0503 82.373 19.0503C85.9347 19.0503 88.0584 21.1907 88.0584 24.7747L88.0607 32.7407ZM102.173 24.6934C102.173 24.7711 102.143 24.8458 102.088 24.9011C102.033 24.9564 101.959 24.9878 101.881 24.9884H99.3525C99.2747 24.9878 99.2004 24.9564 99.1458 24.9011C99.0911 24.8458 99.0606 24.7711 99.0609 24.6934C99.0609 23.7284 98.8204 23.0428 98.324 22.5975C97.8276 22.1523 97.0574 21.9297 95.9766 21.9297C93.5914 21.9297 92.5741 23.2119 92.5741 26.2183C92.5741 29.2046 93.5914 30.4779 95.9766 30.4779C98.1382 30.4779 99.0609 29.6609 99.0609 27.7454C99.0607 27.6679 99.0911 27.5935 99.1455 27.5383C99.1723 27.5106 99.2045 27.4885 99.24 27.4734C99.2756 27.4583 99.3139 27.4505 99.3525 27.4504H101.877C101.955 27.451 102.029 27.4824 102.084 27.5377C102.138 27.5929 102.169 27.6676 102.168 27.7454V27.8311C102.168 31.1212 99.6552 33.4186 96.0568 33.4186C91.9919 33.4186 89.4664 30.6604 89.4664 26.2216C89.4664 21.7828 92.032 19.0236 96.1625 19.0236C99.6986 19.0236 102.173 21.322 102.173 24.6122V24.6934ZM115.368 32.7941C115.407 32.8562 115.429 32.9275 115.43 33.0008C115.432 33.074 115.415 33.1464 115.379 33.2104C115.346 33.2731 115.296 33.3254 115.235 33.3619C115.174 33.3984 115.104 33.4176 115.033 33.4174H112.318C112.251 33.4171 112.185 33.3996 112.127 33.3667C112.069 33.3338 112.019 33.2865 111.984 33.2293L108.645 27.8801H106.712V33.0123C106.713 33.1187 106.671 33.2211 106.597 33.297C106.523 33.373 106.421 33.4163 106.315 33.4174H103.977C103.871 33.4163 103.769 33.373 103.695 33.297C103.62 33.2211 103.579 33.1187 103.58 33.0123V15.2815C103.579 15.1751 103.62 15.0727 103.695 14.9968C103.769 14.9208 103.871 14.8775 103.977 14.8764H106.315C106.421 14.8775 106.523 14.9208 106.597 14.9968C106.671 15.0727 106.713 15.1751 106.712 15.2815V24.965H108.616L112.033 19.7704C112.069 19.7145 112.119 19.6687 112.177 19.6371C112.235 19.6056 112.301 19.5894 112.367 19.5901H115.075C115.149 19.5909 115.221 19.6121 115.283 19.6514C115.346 19.6907 115.396 19.7465 115.428 19.8127C115.463 19.88 115.478 19.9555 115.472 20.031C115.467 20.1064 115.44 20.1788 115.396 20.2401L111.166 26.1392L115.368 32.7941ZM124.758 33.4163H116.84V14.8764H124.438C128.122 14.8764 130.152 16.5459 130.152 19.5645C130.152 21.7795 128.935 23.2075 126.72 23.5993C129.271 23.9866 130.789 25.7219 130.789 28.2652C130.783 31.4908 128.531 33.4163 124.753 33.4163H124.758Z" fill="white"/>
<path id="Vector_10" d="M127.041 20.1365C127.041 18.3556 126.362 17.7869 124.249 17.7869H119.97V22.4616H124.17C126.317 22.4605 127.041 21.874 127.041 20.1365Z" fill="white"/>
<path id="Vector_11" d="M124.675 25.178H119.97V30.5072H124.675C126.881 30.5072 127.626 29.8394 127.626 27.856C127.626 25.8536 126.881 25.178 124.675 25.178Z" fill="white"/>
</g>
</g>
</g>
</svg>
