<svg width="24" height="24" viewBox="0 0 45 45" fill="none" xmlns="http://www.w3.org/2000/svg">
<g id="vuesax/bold/global">
<path id="Vector" d="M14.0698 39.153C14.0148 39.153 13.9415 39.1897 13.8865 39.1897C10.3298 37.4297 7.43312 34.5147 5.65479 30.958C5.65479 30.903 5.69145 30.8297 5.69145 30.7747C7.92812 31.4347 10.2381 31.9297 12.5298 32.3147C12.9331 34.6247 13.4098 36.9163 14.0698 39.153Z" fill="white"/>
<path id="Vector_2" d="M38.4352 30.9763C36.6202 34.6247 33.5952 37.5763 29.9102 39.3547C30.6068 37.0263 31.1935 34.6797 31.5785 32.3147C33.8885 31.9297 36.1618 31.4347 38.3985 30.7747C38.3802 30.848 38.4352 30.9213 38.4352 30.9763Z" fill="white"/>
<path id="Vector_3" d="M38.5818 14.9529C36.2718 14.2563 33.9435 13.6879 31.5785 13.2846C31.1935 10.9196 30.6252 8.57292 29.9102 6.28125C33.7052 8.09625 36.7668 11.1579 38.5818 14.9529Z" fill="white"/>
<path id="Vector_4" d="M14.07 6.48298C13.41 8.71965 12.9333 10.993 12.5483 13.303C10.1833 13.6696 7.83663 14.2563 5.5083 14.953C7.28663 11.268 10.2383 8.24298 13.8866 6.42798C13.9416 6.42798 14.015 6.48298 14.07 6.48298Z" fill="white"/>
<path id="Vector_5" d="M28.4432 12.8996C24.1898 12.423 19.8998 12.423 15.6465 12.8996C16.1048 10.388 16.6915 7.87629 17.5165 5.45629C17.5532 5.30962 17.5348 5.19962 17.5532 5.05295C19.0015 4.70462 20.4865 4.48462 22.0448 4.48462C23.5848 4.48462 25.0882 4.70462 26.5182 5.05295C26.5365 5.19962 26.5365 5.30962 26.5732 5.45629C27.3982 7.89462 27.9848 10.388 28.4432 12.8996Z" fill="white"/>
<path id="Vector_6" d="M12.1264 29.2161C9.59643 28.7578 7.10309 28.1711 4.68309 27.3461C4.53643 27.3094 4.42643 27.3278 4.27976 27.3094C3.93143 25.8611 3.71143 24.3761 3.71143 22.8178C3.71143 21.2778 3.93143 19.7744 4.27976 18.3444C4.42643 18.3261 4.53643 18.3261 4.68309 18.2894C7.12143 17.4828 9.59643 16.8778 12.1264 16.4194C11.6681 20.6728 11.6681 24.9628 12.1264 29.2161Z" fill="white"/>
<path id="Vector_7" d="M40.3784 22.8178C40.3784 24.3761 40.1584 25.8611 39.81 27.3094C39.6634 27.3278 39.5534 27.3094 39.4067 27.3461C36.9684 28.1528 34.475 28.7578 31.9634 29.2161C32.44 24.9628 32.44 20.6728 31.9634 16.4194C34.475 16.8778 36.9867 17.4644 39.4067 18.2894C39.5534 18.3261 39.6634 18.3444 39.81 18.3444C40.1584 19.7928 40.3784 21.2778 40.3784 22.8178Z" fill="white"/>
<path id="Vector_8" d="M28.4432 32.7361C27.9848 35.2661 27.3982 37.7594 26.5732 40.1794C26.5365 40.3261 26.5365 40.4361 26.5182 40.5828C25.0882 40.9311 23.5848 41.1511 22.0448 41.1511C20.4865 41.1511 19.0015 40.9311 17.5532 40.5828C17.5348 40.4361 17.5532 40.3261 17.5165 40.1794C16.7098 37.7411 16.1048 35.2661 15.6465 32.7361C17.7732 32.9744 19.8998 33.1394 22.0448 33.1394C24.1898 33.1394 26.3348 32.9744 28.4432 32.7361Z" fill="white"/>
<path id="Vector_9" d="M28.9442 29.7174C24.3589 30.2959 19.7307 30.2959 15.1453 29.7174C14.5668 25.132 14.5668 20.5039 15.1453 15.9185C19.7307 15.34 24.3589 15.34 28.9442 15.9185C29.5227 20.5039 29.5227 25.132 28.9442 29.7174Z" fill="white"/>
</g>
</svg>
