<svg xmlns="http://www.w3.org/2000/svg" width="87" height="50" viewBox="0 0 87 50" fill="none">
<path d="M21.7754 27.2111C20.6556 27.7386 19.3128 27.9939 17.7458 27.9939C12.1972 27.9939 9.43126 24.7238 9.43126 18.0657C9.43126 11.4076 12.1972 8.14526 17.7458 8.14526C19.305 8.14526 20.6478 8.4006 21.7754 8.93719C22.6711 6.22702 24.0138 3.84476 25.8038 1.7982C23.485 0.806675 20.8072 0.319336 17.7458 0.319336C12.3657 0.319336 8.15329 1.82283 5.0504 4.86869C1.99676 7.97807 0.445312 12.3589 0.445312 18.067C0.445312 23.7751 1.99676 28.1637 5.0504 31.2174C8.152 34.319 12.3657 35.8225 17.7458 35.8225C20.8241 35.8225 23.5174 35.3273 25.8362 34.328C24.0294 32.297 22.6788 29.9238 21.7754 27.2137V27.2111Z" fill="#F0F1F2"/>
<path d="M51.4501 34.3251C49.1314 35.3322 46.4381 35.8195 43.3676 35.8195C37.9952 35.8195 33.7828 34.316 30.6734 31.2144C27.6198 28.1608 26.0684 23.7799 26.0684 18.0641C26.0684 12.3482 27.6198 7.97514 30.6734 4.86576C33.7828 1.8199 37.9965 0.316406 43.3676 0.316406C46.4212 0.316406 49.099 0.803745 51.4177 1.79527C49.6356 3.84961 48.2915 6.23186 47.3972 8.93426C46.2696 8.39896 44.9268 8.14234 43.3676 8.14234C37.828 8.14234 35.0543 11.4124 35.0543 18.0628C35.0543 24.7131 37.828 27.991 43.3676 27.991C44.9346 27.991 46.2851 27.7357 47.405 27.2082C48.3006 29.9105 49.6511 32.2837 51.4501 34.3225V34.3251Z" fill="#F0F1F2"/>
<path d="M78.4444 13.8118C81.3698 13.8118 84.0851 12.8774 86.2885 11.2818V18.0644C86.2885 23.7803 84.7449 28.1611 81.6834 31.2148C78.5883 34.3164 74.3591 35.8198 68.988 35.8198C63.6169 35.8198 59.402 34.3164 56.2926 31.2148C53.2402 28.1624 51.6875 23.7815 51.6875 18.0644C51.6875 12.3472 53.239 7.97546 56.2926 4.86608C59.402 1.81892 63.6156 0.31543 68.988 0.31543C69.0191 0.31543 69.045 0.323206 69.0671 0.323206L86.2872 0.31543C86.2872 2.47475 85.4072 4.43188 83.9918 5.84724C82.5765 7.27167 80.6271 8.14265 78.46 8.14265H68.9867C63.4458 8.14265 60.6722 11.4115 60.6722 18.0631C60.6722 24.7148 63.4471 27.9926 68.9867 27.9926C71.7617 27.9926 73.8381 27.1761 75.2223 25.53C76.604 23.8826 77.3 21.4045 77.3 18.0709V13.8093H78.4431L78.4444 13.8118Z" fill="#F0F1F2"/>
<path d="M86.2892 34.5879V34.9715C86.109 41.8059 81.2201 47.6047 74.5697 48.8892C74.164 48.9683 71.7701 49.3117 68.9939 49.3143H51.6895C51.6895 46.3242 53.5196 44.2491 53.9849 43.7825C55.4002 42.3581 57.3496 41.4871 59.5167 41.4871H68.99C80.7224 41.4871 85.995 34.9456 86.2905 34.5879H86.2892Z" fill="#FF8600"/>
</svg>