<svg xmlns="http://www.w3.org/2000/svg" width="41" height="41" viewBox="0 0 41 41" fill="none">
  <rect x="0.180664" y="0.535156" width="40.4067" height="40.4067" rx="10" fill="url(#paint0_linear_307_1092)"/>
  <path d="M18.4404 20.514C18.4404 20.514 20.3527 20.3686 20.3527 18.0784C20.3527 15.7901 19.0557 14.6621 17.0734 14.6621L10.2822 14.6514V27.2973H17.2313C17.2313 27.2973 20.7058 27.4073 20.7058 23.5035C20.7058 23.5035 20.961 20.514 18.4404 20.514ZM12.8092 16.5483H16.2837C16.2837 16.5483 17.4726 16.5679 17.4726 18.1106C17.4726 19.7097 16.2837 19.7097 16.2837 19.7097H12.8092V16.5483ZM16.5996 25.4004H12.8092V21.6066H16.5996C16.5996 21.6066 18.4948 21.6262 18.4948 23.5035C18.4948 25.3808 16.8725 25.4004 16.5996 25.4004Z" fill="white"/>
  <path d="M26.0759 17.8135C21.3297 17.8135 21.3379 22.5557 21.3379 22.5557C21.3379 22.5557 21.022 27.2979 26.0759 27.2979C26.0759 27.2979 30.498 27.2979 30.498 23.5041H27.9711C27.9711 23.5041 27.9711 25.401 26.0759 25.401C26.0759 25.401 24.1807 25.401 24.1807 22.8718C24.1807 22.8718 29.2345 22.8718 30.498 22.8718C30.498 21.6072 30.498 17.8135 26.0759 17.8135ZM24.1807 21.6072C24.1807 21.6072 24.139 19.7104 26.0759 19.7104C28.0121 19.7104 27.9711 21.6072 27.9711 21.6072H24.1807Z" fill="white"/>
  <path d="M28.6027 15.916H23.5488V17.1806H28.6027V15.916Z" fill="white"/>
  <defs>
    <linearGradient id="paint0_linear_307_1092" x1="-3.81385" y1="26.4489" x2="50.1648" y2="22.5947" gradientUnits="userSpaceOnUse">
      <stop stop-color="#35DBFF"/>
      <stop offset="0.510417" stop-color="#36AEFF"/>
      <stop offset="1" stop-color="#3683FF"/>
    </linearGradient>
  </defs>
</svg>