<svg xmlns="http://www.w3.org/2000/svg" width="25" height="25" viewBox="0 0 25 25" fill="none">
<path d="M12.6671 24.7835C5.97674 24.7835 0.53125 19.338 0.53125 12.6476C0.53125 5.95721 5.97674 0.511719 12.6671 0.511719C19.3575 0.511719 24.803 5.95721 24.803 12.6476C24.803 19.338 19.3575 24.7835 12.6671 24.7835ZM12.6671 2.46912C7.05331 2.46912 2.48865 7.03378 2.48865 12.6476C2.48865 18.2614 7.05331 22.8261 12.6671 22.8261C18.281 22.8261 22.8456 18.2614 22.8456 12.6476C22.8456 7.03378 18.281 2.46912 12.6671 2.46912Z" fill="white"/>
<path d="M9.14464 11.4537C6.85057 11.4537 4.36859 11.1131 1.72218 10.4241C1.1976 10.2871 0.884413 9.75466 1.02143 9.23007C1.15845 8.70549 1.69086 8.39231 2.21544 8.52932C10.233 10.612 16.5084 9.29271 20.3605 4.72022C20.709 4.30917 21.3275 4.25436 21.7386 4.60278C22.1535 4.9512 22.2044 5.56974 21.856 5.98079C18.7985 9.60981 14.4766 11.4537 9.14464 11.4537Z" fill="white"/>
<path d="M4.25027 20.9507C4.02321 20.9507 3.80006 20.8724 3.61607 20.7159C3.20502 20.3635 3.15804 19.745 3.50645 19.3339C9.22989 12.6435 16.6367 11.0541 23.8282 14.9807C24.3019 15.239 24.478 15.8341 24.2197 16.3078C23.9613 16.7815 23.3662 16.9576 22.8925 16.6993C14.2565 11.9898 7.97324 17.126 4.99408 20.6102C4.80225 20.8333 4.52822 20.9507 4.25027 20.9507Z" fill="white"/>
<path d="M15.8737 24.3134C15.8384 24.3134 15.8032 24.3134 15.768 24.3094C15.2316 24.2507 14.8441 23.7692 14.9028 23.229C15.6662 16.2293 13.8654 9.17091 9.55518 2.24171C9.2694 1.78368 9.41033 1.1808 9.86836 0.895023C10.3264 0.609242 10.9293 0.750175 11.2151 1.20821C15.7641 8.51714 17.6588 15.9983 16.8485 23.4443C16.7897 23.9454 16.3669 24.3134 15.8737 24.3134Z" fill="white"/>
</svg>