<svg xmlns="http://www.w3.org/2000/svg" width="21" height="21" viewBox="0 0 21 21" fill="none">
<path d="M7.20777 10.7894C7.20777 8.92811 8.71576 7.41887 10.5765 7.41887C12.4372 7.41887 13.946 8.92811 13.946 10.7894C13.946 12.6506 12.4372 14.1598 10.5765 14.1598C8.71576 14.1598 7.20777 12.6506 7.20777 10.7894ZM5.38628 10.7894C5.38628 13.6567 7.70992 15.981 10.5765 15.981C13.443 15.981 15.7667 13.6567 15.7667 10.7894C15.7667 7.92198 13.443 5.59766 10.5765 5.59766C7.70992 5.59766 5.38628 7.92198 5.38628 10.7894ZM14.7592 5.39181C14.7591 5.63177 14.8302 5.86637 14.9634 6.06595C15.0966 6.26553 15.2859 6.42111 15.5075 6.51303C15.7291 6.60495 15.973 6.62907 16.2083 6.58235C16.4436 6.53563 16.6598 6.42016 16.8295 6.25055C16.9992 6.08094 17.1148 5.8648 17.1617 5.62947C17.2086 5.39413 17.1846 5.15017 17.0929 4.92844C17.0012 4.70671 16.8458 4.51716 16.6464 4.38376C16.447 4.25036 16.2125 4.17911 15.9726 4.17902H15.9721C15.6506 4.17917 15.3422 4.30697 15.1148 4.53437C14.8874 4.76177 14.7595 5.07016 14.7592 5.39181ZM6.49295 19.0192C5.50749 18.9743 4.97186 18.8101 4.61591 18.6714C4.144 18.4876 3.80729 18.2687 3.45328 17.9151C3.09927 17.5615 2.88013 17.225 2.69722 16.7529C2.55846 16.397 2.39431 15.8611 2.34951 14.8753C2.30051 13.8096 2.29073 13.4895 2.29073 10.7894C2.29073 8.08941 2.30132 7.77015 2.34951 6.70352C2.39439 5.71777 2.55976 5.18288 2.69722 4.82594C2.88094 4.35389 3.09975 4.01708 3.45328 3.66297C3.80681 3.30885 4.14319 3.08965 4.61591 2.90669C4.9717 2.76789 5.50749 2.6037 6.49295 2.55889C7.55839 2.50987 7.87844 2.50008 10.5765 2.50008C13.2745 2.50008 13.5949 2.51068 14.6612 2.55889C15.6467 2.60378 16.1814 2.76919 16.5383 2.90669C17.0102 3.08965 17.3469 3.30934 17.7009 3.66297C18.0549 4.0166 18.2732 4.35389 18.4569 4.82594C18.5957 5.18183 18.7598 5.71777 18.8046 6.70352C18.8536 7.77015 18.8634 8.08941 18.8634 10.7894C18.8634 13.4895 18.8536 13.8087 18.8046 14.8753C18.7598 15.8611 18.5948 16.3969 18.4569 16.7529C18.2732 17.225 18.0544 17.5618 17.7009 17.9151C17.3474 18.2684 17.0102 18.4876 16.5383 18.6714C16.1825 18.8102 15.6467 18.9744 14.6612 19.0192C13.5958 19.0682 13.2757 19.078 10.5765 19.078C7.87723 19.078 7.55807 19.0682 6.49295 19.0192ZM6.40926 0.739941C5.33323 0.788957 4.59796 0.959625 3.95583 1.20956C3.29083 1.46766 2.72787 1.81393 2.16531 2.37576C1.60276 2.93759 1.25748 3.5016 0.999446 4.1668C0.749583 4.80952 0.578965 5.5446 0.529962 6.62094C0.480152 7.69898 0.46875 8.04363 0.46875 10.7894C0.46875 13.5351 0.480152 13.8797 0.529962 14.9578C0.578965 16.0342 0.749583 16.7692 0.999446 17.4119C1.25748 18.0767 1.60284 18.6414 2.16531 19.2029C2.72779 19.7645 3.29083 20.1103 3.95583 20.3692C4.59917 20.6191 5.33323 20.7898 6.40926 20.8388C7.48755 20.8878 7.83154 20.9 10.5765 20.9C13.3214 20.9 13.666 20.8886 14.7437 20.8388C15.8198 20.7898 16.5546 20.6191 17.1971 20.3692C17.8617 20.1103 18.4251 19.7648 18.9876 19.2029C19.5502 18.6411 19.8947 18.0767 20.1535 17.4119C20.4034 16.7692 20.5748 16.0341 20.623 14.9578C20.672 13.8789 20.6834 13.5351 20.6834 10.7894C20.6834 8.04363 20.672 7.69898 20.623 6.62094C20.574 5.54452 20.4034 4.80911 20.1535 4.1668C19.8947 3.50201 19.5493 2.93848 18.9876 2.37576C18.426 1.81304 17.8617 1.46766 17.1979 1.20956C16.5546 0.959625 15.8197 0.788149 14.7445 0.739941C13.6668 0.690925 13.3222 0.678711 10.5773 0.678711C7.83235 0.678711 7.48755 0.690116 6.40926 0.739941Z" fill="white"/>
<path d="M7.20777 10.7894C7.20777 8.92811 8.71576 7.41887 10.5765 7.41887C12.4372 7.41887 13.946 8.92811 13.946 10.7894C13.946 12.6506 12.4372 14.1598 10.5765 14.1598C8.71576 14.1598 7.20777 12.6506 7.20777 10.7894ZM5.38628 10.7894C5.38628 13.6567 7.70992 15.981 10.5765 15.981C13.443 15.981 15.7667 13.6567 15.7667 10.7894C15.7667 7.92198 13.443 5.59766 10.5765 5.59766C7.70992 5.59766 5.38628 7.92198 5.38628 10.7894ZM14.7592 5.39181C14.7591 5.63177 14.8302 5.86637 14.9634 6.06595C15.0966 6.26553 15.2859 6.42111 15.5075 6.51303C15.7291 6.60495 15.973 6.62907 16.2083 6.58235C16.4436 6.53563 16.6598 6.42016 16.8295 6.25055C16.9992 6.08094 17.1148 5.8648 17.1617 5.62947C17.2086 5.39413 17.1846 5.15017 17.0929 4.92844C17.0012 4.70671 16.8458 4.51716 16.6464 4.38376C16.447 4.25036 16.2125 4.17911 15.9726 4.17902H15.9721C15.6506 4.17917 15.3422 4.30697 15.1148 4.53437C14.8874 4.76177 14.7595 5.07016 14.7592 5.39181ZM6.49295 19.0192C5.50749 18.9743 4.97186 18.8101 4.61591 18.6714C4.144 18.4876 3.80729 18.2687 3.45328 17.9151C3.09927 17.5615 2.88013 17.225 2.69722 16.7529C2.55846 16.397 2.39431 15.8611 2.34951 14.8753C2.30051 13.8096 2.29073 13.4895 2.29073 10.7894C2.29073 8.08941 2.30132 7.77015 2.34951 6.70352C2.39439 5.71777 2.55976 5.18288 2.69722 4.82594C2.88094 4.35389 3.09975 4.01708 3.45328 3.66297C3.80681 3.30885 4.14319 3.08965 4.61591 2.90669C4.9717 2.76789 5.50749 2.6037 6.49295 2.55889C7.55839 2.50987 7.87844 2.50008 10.5765 2.50008C13.2745 2.50008 13.5949 2.51068 14.6612 2.55889C15.6467 2.60378 16.1814 2.76919 16.5383 2.90669C17.0102 3.08965 17.3469 3.30934 17.7009 3.66297C18.0549 4.0166 18.2732 4.35389 18.4569 4.82594C18.5957 5.18183 18.7598 5.71777 18.8046 6.70352C18.8536 7.77015 18.8634 8.08941 18.8634 10.7894C18.8634 13.4895 18.8536 13.8087 18.8046 14.8753C18.7598 15.8611 18.5948 16.3969 18.4569 16.7529C18.2732 17.225 18.0544 17.5618 17.7009 17.9151C17.3474 18.2684 17.0102 18.4876 16.5383 18.6714C16.1825 18.8102 15.6467 18.9744 14.6612 19.0192C13.5958 19.0682 13.2757 19.078 10.5765 19.078C7.87723 19.078 7.55807 19.0682 6.49295 19.0192ZM6.40926 0.739941C5.33323 0.788957 4.59796 0.959625 3.95583 1.20956C3.29083 1.46766 2.72787 1.81393 2.16531 2.37576C1.60276 2.93759 1.25748 3.5016 0.999446 4.1668C0.749583 4.80952 0.578965 5.5446 0.529962 6.62094C0.480152 7.69898 0.46875 8.04363 0.46875 10.7894C0.46875 13.5351 0.480152 13.8797 0.529962 14.9578C0.578965 16.0342 0.749583 16.7692 0.999446 17.4119C1.25748 18.0767 1.60284 18.6414 2.16531 19.2029C2.72779 19.7645 3.29083 20.1103 3.95583 20.3692C4.59917 20.6191 5.33323 20.7898 6.40926 20.8388C7.48755 20.8878 7.83154 20.9 10.5765 20.9C13.3214 20.9 13.666 20.8886 14.7437 20.8388C15.8198 20.7898 16.5546 20.6191 17.1971 20.3692C17.8617 20.1103 18.4251 19.7648 18.9876 19.2029C19.5502 18.6411 19.8947 18.0767 20.1535 17.4119C20.4034 16.7692 20.5748 16.0341 20.623 14.9578C20.672 13.8789 20.6834 13.5351 20.6834 10.7894C20.6834 8.04363 20.672 7.69898 20.623 6.62094C20.574 5.54452 20.4034 4.80911 20.1535 4.1668C19.8947 3.50201 19.5493 2.93848 18.9876 2.37576C18.426 1.81304 17.8617 1.46766 17.1979 1.20956C16.5546 0.959625 15.8197 0.788149 14.7445 0.739941C13.6668 0.690925 13.3222 0.678711 10.5773 0.678711C7.83235 0.678711 7.48755 0.690116 6.40926 0.739941Z" fill="white"/>
</svg>