<svg xmlns="http://www.w3.org/2000/svg" width="18" height="17" viewBox="0 0 18 17" fill="none">
<path d="M4.3306 16.9266V6.01165H0.705843V16.9266H4.33098H4.3306ZM2.51898 4.52165C3.78274 4.52165 4.56952 3.6835 4.56952 2.63606C4.54586 1.56475 3.78274 0.75 2.54301 0.75C1.30243 0.75 0.492188 1.56475 0.492188 2.63597C0.492188 3.68341 1.27868 4.52155 2.49523 4.52155H2.51869L2.51898 4.52165ZM6.33695 16.9266H9.96143V10.8319C9.96143 10.5061 9.98508 10.1795 10.0808 9.94676C10.3428 9.29471 10.9391 8.61974 11.9407 8.61974C13.252 8.61974 13.7768 9.62059 13.7768 11.0881V16.9266H17.4012V10.6683C17.4012 7.31584 15.6133 5.75575 13.2285 5.75575C11.2734 5.75575 10.4147 6.84951 9.93758 7.59446H9.96171V6.01203H6.33714C6.38445 7.03598 6.33686 16.927 6.33686 16.927L6.33695 16.9266Z" fill="white"/>
</svg>