<svg xmlns="http://www.w3.org/2000/svg" width="42" height="41" viewBox="0 0 42 41" fill="none">
<rect x="0.960938" y="0.535156" width="40.4067" height="40.4067" rx="10" fill="url(#paint0_linear_307_1089)"/>
<path d="M11.0625 30.0924L12.512 24.7026C11.343 22.6031 10.9716 20.153 11.466 17.8021C11.9603 15.4512 13.2873 13.3571 15.2033 11.9042C17.1194 10.4512 19.4961 9.73674 21.8972 9.89197C24.2983 10.0472 26.5628 11.0617 28.2751 12.7492C29.9875 14.4368 31.0329 16.6842 31.2194 19.0791C31.406 21.474 30.7211 23.8558 29.2907 25.7873C27.8602 27.7188 25.78 29.0706 23.4318 29.5945C21.0836 30.1184 18.6249 29.7794 16.5068 28.6395L11.0625 30.0924ZM16.7694 26.6227L17.1061 26.8221C18.6402 27.7299 20.432 28.1055 22.2023 27.8905C23.9726 27.6755 25.622 26.8819 26.8933 25.6333C28.1647 24.3848 28.9866 22.7515 29.2311 20.9878C29.4755 19.2242 29.1287 17.4295 28.2447 15.8832C27.3608 14.3369 25.9893 13.1259 24.344 12.4391C22.6987 11.7522 20.872 11.628 19.1486 12.0858C17.4252 12.5436 15.9019 13.5577 14.816 14.97C13.7302 16.3823 13.1429 18.1136 13.1455 19.894C13.1441 21.3703 13.553 22.818 14.3268 24.0759L14.538 24.4235L13.7276 27.4317L16.7694 26.6227Z" fill="white"/>
<path fill-rule="evenodd" clip-rule="evenodd" d="M24.9415 21.2772C24.7441 21.1182 24.513 21.0064 24.2657 20.9501C24.0185 20.8938 23.7617 20.8946 23.5148 20.9524C23.1438 21.1063 22.9041 21.6874 22.6644 21.978C22.6139 22.0476 22.5396 22.0965 22.4556 22.1154C22.3715 22.1342 22.2835 22.1218 22.2079 22.0805C20.8498 21.5495 19.7115 20.5757 18.9778 19.3173C18.9152 19.2387 18.8856 19.139 18.8952 19.0391C18.9048 18.9393 18.9528 18.847 19.0292 18.7817C19.2965 18.5175 19.4928 18.1903 19.5999 17.8303C19.6236 17.4332 19.5325 17.0376 19.3373 16.6908C19.1865 16.2045 18.8993 15.7716 18.5098 15.443C18.309 15.3528 18.0862 15.3226 17.8685 15.356C17.6508 15.3893 17.4474 15.4849 17.2829 15.6311C16.9972 15.8771 16.7705 16.184 16.6194 16.5291C16.4683 16.8742 16.3966 17.2487 16.4097 17.6251C16.4106 17.8365 16.4374 18.047 16.4896 18.2519C16.6221 18.7441 16.8259 19.2143 17.0945 19.6477C17.2883 19.9797 17.4998 20.3011 17.728 20.6106C18.4696 21.627 19.4019 22.49 20.473 23.1516C21.0105 23.4879 21.585 23.7612 22.1851 23.9664C22.8084 24.2485 23.4967 24.3567 24.1768 24.2797C24.5642 24.2212 24.9314 24.0684 25.2458 23.835C25.5603 23.6015 25.8124 23.2944 25.9801 22.9408C26.0786 22.7272 26.1086 22.4884 26.0657 22.2571C25.963 21.7843 25.3295 21.5051 24.9415 21.2772Z" fill="white"/>
<defs>
<linearGradient id="paint0_linear_307_1089" x1="-3.03358" y1="26.4489" x2="50.945" y2="22.5947" gradientUnits="userSpaceOnUse">
<stop stop-color="#35DBFF"/>
<stop offset="0.510417" stop-color="#36AEFF"/>
<stop offset="1" stop-color="#3683FF"/>
</linearGradient>
</defs>
</svg>